<?xml version="1.0" encoding="utf-8"?>
<!-- Generator: Adobe Illustrator 16.0.1, SVG Export Plug-In . SVG Version: 6.00 Build 0)  -->
<!DOCTYPE svg PUBLIC "-//W3C//DTD SVG 1.1//EN" "http://www.w3.org/Graphics/SVG/1.1/DTD/svg11.dtd">
<svg version="1.1" xmlns="http://www.w3.org/2000/svg" xmlns:xlink="http://www.w3.org/1999/xlink" x="0px" y="0px" width="1024px"
	 height="1024px" viewBox="0 0 1024 1024" enable-background="new 0 0 1024 1024" xml:space="preserve">
<g id="Layer_1" display="none">
	<g display="inline">
		<path fill="#4A4748" d="M663.99,574.24H364.222v234.178c44.139,25.559,95.222,40.383,149.885,40.383
			c54.66,0,105.76-14.859,149.883-40.383V574.24z"/>
	</g>
	<path display="inline" fill="#4A4748" d="M528.174,220.771V184.11h64.338v-28.136H436.533v28.136h63.501v36.661H287.979v56.284
		h29.205v18.467v28.143V845.67l7.025,4.074c57.806,33.502,123.477,51.197,189.914,51.197c66.436,0,132.119-17.695,189.978-51.197
		l7.025-4.074V323.666v-28.143v-18.467h27.149v-56.284H528.174z M494.548,234.652h39.933c7.731,0,11.648,5.839,8.681,12.993
		l-23.778,57.344c-2.969,7.139-7.749,7.108-10.635-0.066l-23.024-57.227C482.834,240.521,486.817,234.652,494.548,234.652z
		 M682.984,829.355c-103.66,56.871-234.082,56.871-337.661,0v-505.69h154.71v210.161H376.449c-7.781,0-14.074,6.285-14.074,14.068
		c0,7.766,6.293,14.073,14.074,14.073h275.537c7.781,0,14.074-6.308,14.074-14.073c0-7.783-6.293-14.068-14.074-14.068H528.174
		V323.666h154.811V829.355z"/>
	
		<circle display="inline" fill="none" stroke="#4A4748" stroke-width="30" stroke-miterlimit="10" cx="512" cy="528.457" r="449.445"/>
	<path display="inline" fill="none" stroke="#4A4748" stroke-width="30" stroke-miterlimit="10" d="M694.258,713.748
		c47.928-47.148,77.647-112.749,77.647-185.291c0-73.648-30.633-140.141-79.852-187.435"/>
	<path display="inline" fill="none" stroke="#4A4748" stroke-width="30" stroke-miterlimit="10" d="M328.219,344.676
		c-47.034,47.034-76.125,112.01-76.125,183.781c0,74.497,31.344,141.674,81.563,189.062"/>
</g>
<g id="Layer_2" display="none">
	
		<image display="inline" overflow="visible" width="110" height="146" xlink:href="../../../../Desktop/Screen Shot 2014-04-08 at 12.38.54 PM.png"  transform="matrix(3.1458 0 0 2.4287 536.4141 334.4824)">
	</image>
	
		<image display="inline" overflow="visible" width="136" height="224" xlink:href="../../../../Desktop/Screen Shot 2014-04-08 at 12.38.44 PM.png"  transform="matrix(2.6047 0 0 1.5814 133.9478 334.4824)">
	</image>
	
		<rect x="133.948" y="334.482" display="inline" fill="none" stroke="#4A4748" stroke-width="30" stroke-miterlimit="10" width="354.241" height="354.24"/>
	
		<rect x="536.414" y="334.482" display="inline" fill="none" stroke="#4A4748" stroke-width="30" stroke-miterlimit="10" width="354.24" height="354.24"/>
	
		<rect x="76.657" y="277.975" display="inline" fill="none" stroke="#4A4748" stroke-width="30" stroke-miterlimit="10" width="866.685" height="458.051"/>
	<g display="inline">
		<path fill="#4A4748" d="M351.448,591.231c-5.595,3.991-12.713,6.849-21.363,8.581s-17.521,2.601-26.605,2.601
			c-11.01,0-21.453-1.702-31.324-5.11c-9.875-3.409-18.569-8.912-26.081-16.515c-7.516-7.601-13.5-17.471-17.955-29.62
			c-4.457-12.144-6.685-26.868-6.685-44.168c0-17.996,2.49-33.068,7.47-45.216c4.981-12.145,11.444-21.929,19.397-29.358
			c7.95-7.426,16.817-12.754,26.605-15.99c9.785-3.23,19.569-4.849,29.358-4.849c10.485,0,19.353,0.7,26.606,2.097
			c7.249,1.4,13.237,3.06,17.955,4.98l-7.077,30.406c-4.022-1.921-8.781-3.317-14.286-4.193c-5.505-0.872-12.188-1.311-20.053-1.311
			c-14.507,0-26.171,5.169-34.993,15.497c-8.826,10.334-13.238,26.356-13.238,48.068c0,9.456,1.05,18.082,3.146,25.872
			c2.098,7.794,5.284,14.45,9.568,19.963c4.28,5.518,9.608,9.809,15.989,12.872c6.377,3.063,13.762,4.596,22.15,4.596
			c7.863,0,14.502-0.787,19.921-2.359c5.414-1.572,10.133-3.579,14.155-6.028L351.448,591.231z"/>
	</g>
	<g display="inline">
		<path fill="#4A4748" d="M739.485,549.465c0-5.591-2.058-10.134-6.16-13.63c-4.109-3.494-9.266-6.686-15.466-9.568
			c-6.205-2.883-12.935-5.853-20.184-8.912c-7.254-3.056-13.983-6.815-20.185-11.271c-6.205-4.456-11.36-10.002-15.465-16.645
			c-4.107-6.64-6.16-15.113-6.16-25.427c0-8.912,1.483-16.645,4.456-23.198c2.97-6.553,7.209-12.013,12.714-16.383
			c5.505-4.365,12.012-7.602,19.527-9.698c7.512-2.098,15.9-3.146,25.164-3.146c10.658,0,20.708,0.917,30.145,2.752
			s17.211,4.501,23.329,7.995l-11.271,30.145c-3.847-2.445-9.612-4.673-17.301-6.685c-7.691-2.007-15.99-3.015-24.902-3.015
			c-8.387,0-14.81,1.663-19.267,4.98c-4.455,3.322-6.684,7.778-6.684,13.369c0,5.242,2.052,9.612,6.16,13.105
			c4.104,3.498,9.261,6.729,15.466,9.699c6.201,2.974,12.93,6.028,20.184,9.174c7.25,3.146,13.979,6.947,20.184,11.403
			c6.201,4.455,11.357,9.96,15.465,16.514c4.104,6.553,6.16,14.724,6.16,24.508c0,9.789-1.618,18.218-4.85,25.295
			c-3.235,7.078-7.776,12.976-13.63,17.693c-5.856,4.718-12.935,8.218-21.232,10.485c-8.302,2.27-17.431,3.407-27.393,3.407
			c-13.106,0-24.64-1.224-34.6-3.668c-9.962-2.446-17.301-4.892-22.019-7.341l11.533-30.668c1.921,1.047,4.411,2.187,7.471,3.407
			c3.056,1.224,6.508,2.359,10.354,3.407c3.843,1.05,7.904,1.925,12.188,2.621c4.28,0.702,8.692,1.05,13.238,1.05
			c10.656,0,18.827-1.791,24.509-5.374C736.643,562.268,739.485,556.805,739.485,549.465z"/>
	</g>
</g>
<g id="Layer_3" display="none">
	<circle display="inline" fill="none" cx="511.999" cy="528.459" r="342.616"/>
	<text transform="matrix(0.6477 -0.7619 0.7619 0.6477 260.1167 389.6401)" display="inline"><tspan x="0" y="0" fill="#4A4748" font-family="'ClearSans-Light'" font-size="180">C</tspan><tspan x="109.624" y="-1.634" fill="#4A4748" font-family="'ClearSans-Light'" font-size="180" rotate="22.506">O</tspan><tspan x="215.353" y="43.448" fill="#4A4748" font-family="'ClearSans-Light'" font-size="180" rotate="43.325">F</tspan><tspan x="284.484" y="107.888" fill="#4A4748" font-family="'ClearSans-Light'" font-size="180" rotate="62.347">F</tspan><tspan x="328.967" y="190.947" fill="#4A4748" font-family="'ClearSans-Light'" font-size="180" rotate="81.763">E</tspan><tspan x="343.717" y="287.816" fill="#4A4748" font-family="'ClearSans-Light'" font-size="180" rotate="101.383">E</tspan></text>
	
		<line display="inline" fill="none" stroke="#4A4748" stroke-width="30" stroke-miterlimit="10" x1="-82.658" y1="-17" x2="-949.343" y2="-17"/>
	<rect x="-571" y="133" display="inline" fill="#4A4748" width="206" height="216"/>
	
		<circle display="inline" fill="none" stroke="#4A4748" stroke-width="30" stroke-miterlimit="10" cx="512" cy="528.457" r="449.445"/>
	
		<circle display="inline" fill="none" stroke="#4A4748" stroke-width="30" stroke-miterlimit="10" cx="512" cy="528.457" r="242.429"/>
	<g display="inline">
		<path fill="#4A4748" d="M395.461,483.918c-43.941,7.318-74.702,54.281-69.37,107.453c5.331,53.172,44.805,93.092,89.324,91.54
			L395.461,483.918z"/>
		<path fill="#4A4748" d="M404.833,482.978l19.954,198.993c43.943-7.316,74.704-54.28,69.373-107.452
			C488.828,521.348,449.353,481.426,404.833,482.978z"/>
	</g>
	<g display="inline">
		<path fill="#4A4748" d="M636.803,507.937c-39.93-13.206-86.276,12.503-105.197,59.27c-18.924,46.764-3.497,97.471,34.377,115.748
			L636.803,507.937z"/>
		<path fill="#4A4748" d="M645.045,511.271l-70.82,175.018c39.929,13.205,86.275-12.501,105.199-59.268
			C698.348,580.254,682.92,529.551,645.045,511.271z"/>
	</g>
	<g display="inline">
		<path fill="#4A4748" d="M519.317,327.647c-41.974,2.628-75.4,43.757-75.531,94.206c-0.13,50.448,33.082,91.752,75.039,94.599
			L519.317,327.647z"/>
		<path fill="#4A4748" d="M528.209,327.669l-0.492,188.801c41.973-2.624,75.402-43.753,75.532-94.202
			C603.381,371.819,570.168,330.517,528.209,327.669z"/>
	</g>
	<path display="inline" fill="none" d="M260.399,295.9c128.438-138.956,345.205-147.473,484.161-19.04
		C883.513,405.297,892.039,622.063,763.6,761.02C635.163,899.973,418.397,908.5,279.441,780.057
		C140.486,651.623,131.962,434.855,260.399,295.9z"/>
	<text transform="matrix(0.873 0.4877 -0.4877 0.873 270.4214 855.7129)" display="inline"><tspan x="0" y="0" fill="#4A4748" font-family="'ClearSans-Light'" font-size="180">T</tspan><tspan x="143.027" y="-9.296" fill="#4A4748" font-family="'ClearSans-Light'" font-size="180" rotate="-17.621">I</tspan><tspan x="245.11" y="-43.156" fill="#4A4748" font-family="'ClearSans-Light'" font-size="180" rotate="-37.86">M</tspan><tspan x="371.162" y="-152.285" fill="#4A4748" font-family="'ClearSans-Light'" font-size="180" rotate="-59.035">E</tspan></text>
	<g id="Layer_4" display="inline">
	</g>
</g>
<g id="Layer_5" display="none">
	
		<image display="inline" overflow="visible" width="110" height="146" xlink:href="../../../../Desktop/Screen Shot 2014-04-08 at 12.38.54 PM.png"  transform="matrix(9.3091 0 0 7.0137 0 0)">
	</image>
	<path display="inline" fill="#252525" d="M424.163,680.903V783.34l0.049,4.213c0,17.211-15.044,31.162-33.603,31.162
		c-18.56,0-33.604-13.951-33.604-31.162v-4.213V547.021l0.251-45.555V305.204l-0.062-1.381c0-17.211,15.045-33.418,33.603-33.418
		c18.558,0,33.603,16.207,33.603,33.418v1.381v92.771H464.4v-86.902c0-51.848-24.458-93.927-77.62-93.927
		c-46.013,0-77.771,42.053-77.771,93.927v3.383v458.929v5.277c0,53.699,33.708,97.236,79.511,97.236
		c50.298,0,82.933-39.018,82.933-97.236v-3.588v-94.171H424.163z"/>
	<polygon display="inline" fill="#252525" points="743.493,223.034 675.756,222.94 675.756,222.783 628.635,222.783 
		628.629,222.874 557.574,222.783 557.574,273.284 625.131,273.284 623,303.994 623,867.5 675.504,867.5 675.734,273.284 
		743.493,273.284 	"/>
	<path display="inline" fill="#252525" d="M554.902,500h0.062l-23.034-42.957c0-0.016-0.015-0.03-0.022-0.038l-0.136-0.264h-0.045
		c-1.045-2.152-3.198-3.661-5.75-3.661c-2.555,0-4.706,1.509-5.763,3.661h-0.038l-0.132,0.249c-0.009,0.023-0.024,0.038-0.024,0.053
		l-21.055,39.268h0.091c-3.106,4.92-4.964,10.699-4.964,16.944c0,17.604,14.281,31.886,31.885,31.886
		c17.605,0,31.885-14.282,31.885-31.886C557.861,508.509,556.762,504.033,554.902,500z"/>
	<g display="inline">
		<path fill="#252525" d="M970.196,959.562H64.704V54.074h905.492V959.562z M100.509,923.758h833.88V89.88h-833.88V923.758z"/>
	</g>
	<g display="inline">
		<rect x="296.009" y="133.21" fill="#252525" width="464.484" height="37.34"/>
	</g>
	<path display="inline" fill="#EFEFEF" d="M-643.353,680.903V783.34l0.049,4.213c0,17.211-15.044,31.162-33.603,31.162
		c-18.56,0-33.604-13.951-33.604-31.162v-4.213V547.021l0.251-45.555V305.204l-0.062-1.381c0-17.211,15.045-33.418,33.603-33.418
		c18.558,0,33.603,16.207,33.603,33.418v1.381v92.771h40.002v-86.902c0-51.848-24.458-93.927-77.62-93.927
		c-46.013,0-77.771,42.053-77.771,93.927v3.383v458.929v5.277c0,53.699,33.708,97.236,79.511,97.236
		c50.298,0,82.933-39.018,82.933-97.236v-3.588v-94.171H-643.353z"/>
	<polygon display="inline" fill="#EFEFEF" points="-324.022,223.034 -391.76,222.94 -391.76,222.783 -438.881,222.783 
		-438.887,222.874 -509.941,222.783 -509.941,273.284 -442.385,273.284 -444.516,303.994 -444.516,867.5 -392.012,867.5 
		-391.781,273.284 -324.022,273.284 	"/>
	<path display="inline" fill="#EFEFEF" d="M-512.613,500h0.062l-23.034-42.957c0-0.016-0.015-0.03-0.022-0.038l-0.136-0.264h-0.045
		c-1.045-2.152-3.198-3.661-5.75-3.661c-2.555,0-4.706,1.509-5.763,3.661h-0.038l-0.132,0.249c-0.009,0.023-0.024,0.038-0.024,0.053
		l-21.055,39.268h0.091c-3.106,4.92-4.964,10.699-4.964,16.944c0,17.604,14.281,31.886,31.885,31.886
		c17.605,0,31.885-14.282,31.885-31.886C-509.654,508.509-510.754,504.033-512.613,500z"/>
	<g display="inline">
		<rect x="-771.507" y="133.21" fill="#EFEFEF" width="464.484" height="37.34"/>
	</g>
	<path display="inline" fill="#EFEFEF" d="M1645.877,680.903V783.34l0.049,4.213c0,17.211-15.045,31.162-33.604,31.162
		c-18.56,0-33.604-13.951-33.604-31.162v-4.213V547.021l0.251-45.555V305.204l-0.062-1.381c0-17.211,15.046-33.418,33.603-33.418
		c18.559,0,33.603,16.207,33.603,33.418v1.381v92.771h40.002v-86.902c0-51.848-24.458-93.927-77.62-93.927
		c-46.013,0-77.771,42.053-77.771,93.927v3.383v458.929v5.277c0,53.699,33.707,97.236,79.512,97.236
		c50.297,0,82.932-39.018,82.932-97.236v-3.588v-94.171H1645.877z"/>
	<polygon display="inline" fill="#EFEFEF" points="1965.207,223.034 1897.47,222.94 1897.47,222.783 1850.349,222.783 
		1850.343,222.874 1779.288,222.783 1779.288,273.284 1846.845,273.284 1844.714,303.994 1844.714,867.5 1897.218,867.5 
		1897.448,273.284 1965.207,273.284 	"/>
	<path display="inline" fill="#EFEFEF" d="M1776.616,500h0.062l-23.034-42.957c0-0.016-0.015-0.03-0.022-0.038l-0.136-0.264h-0.045
		c-1.045-2.152-3.198-3.661-5.75-3.661c-2.555,0-4.706,1.509-5.763,3.661h-0.038l-0.132,0.249c-0.009,0.023-0.024,0.038-0.024,0.053
		l-21.056,39.268h0.092c-3.105,4.92-4.965,10.699-4.965,16.944c0,17.604,14.281,31.886,31.886,31.886
		c17.605,0,31.885-14.282,31.885-31.886C1779.575,508.509,1778.476,504.033,1776.616,500z"/>
	<g display="inline">
		<rect x="1517.723" y="133.21" fill="#EFEFEF" width="464.484" height="37.34"/>
	</g>
	
		<circle display="inline" fill="none" stroke="#EFEFEF" stroke-width="40" stroke-miterlimit="10" cx="1747.69" cy="506.818" r="504.243"/>
	<path display="inline" fill="#EFEFEF" d="M1675.877,2060.603v102.437l0.049,4.213c0,17.211-15.045,31.162-33.604,31.162
		c-18.56,0-33.604-13.951-33.604-31.162v-4.213V1926.72l0.251-45.555v-196.262l-0.062-1.382c0-17.212,15.046-33.419,33.603-33.419
		c18.559,0,33.603,16.207,33.603,33.419v1.382v92.771h40.002v-86.902c0-51.848-24.458-93.928-77.62-93.928
		c-46.013,0-77.771,42.053-77.771,93.928v3.383v458.929v5.277c0,53.699,33.707,97.236,79.512,97.236
		c50.297,0,82.932-39.018,82.932-97.236v-3.588v-94.171H1675.877z"/>
	<polygon display="inline" fill="#EFEFEF" points="1945.207,1602.733 1877.47,1602.64 1877.47,1602.481 1830.349,1602.481 
		1830.343,1602.573 1759.288,1602.481 1759.288,1652.983 1826.845,1652.983 1824.714,1683.692 1824.714,2247.199 1877.218,2247.199 
		1877.448,1652.983 1945.207,1652.983 	"/>
	<g display="inline">
		<rect x="1517.723" y="1512.909" fill="#EFEFEF" width="464.484" height="37.34"/>
	</g>
	
		<circle display="inline" fill="none" stroke="#EFEFEF" stroke-width="40" stroke-miterlimit="10" cx="1747.69" cy="1886.517" r="504.243"/>
	<path display="inline" fill="#EFEFEF" d="M424.163,2033.683v102.437l0.049,4.213c0,17.211-15.044,31.162-33.603,31.162
		c-18.56,0-33.604-13.951-33.604-31.162v-4.213V1899.8l0.251-45.555v-196.263l-0.062-1.381c0-17.211,15.045-33.418,33.603-33.418
		c18.558,0,33.603,16.207,33.603,33.418v1.381v92.771H464.4v-86.902c0-51.848-24.458-93.927-77.62-93.927
		c-46.013,0-77.771,42.053-77.771,93.927v3.383v458.93v5.277c0,53.699,33.708,97.236,79.511,97.236
		c50.298,0,82.933-39.018,82.933-97.236v-3.588v-94.171H424.163z"/>
	<polygon display="inline" fill="#EFEFEF" points="743.493,1575.812 675.756,1575.719 675.756,1575.562 628.635,1575.562 
		628.629,1575.653 557.574,1575.562 557.574,1626.062 625.131,1626.062 623,1656.773 623,2220.279 675.504,2220.279 
		675.734,1626.062 743.493,1626.062 	"/>
	<path display="inline" fill="#EFEFEF" d="M554.902,1852.779h0.062l-23.034-42.957c0-0.016-0.015-0.029-0.022-0.037l-0.136-0.264
		h-0.045c-1.045-2.152-3.198-3.662-5.75-3.662c-2.555,0-4.706,1.51-5.763,3.662h-0.038l-0.132,0.248
		c-0.009,0.023-0.024,0.037-0.024,0.053l-21.055,39.269h0.091c-3.106,4.92-4.964,10.699-4.964,16.944
		c0,17.604,14.281,31.886,31.885,31.886c17.605,0,31.885-14.282,31.885-31.886C557.861,1861.288,556.762,1856.812,554.902,1852.779z
		"/>
	<g display="inline">
		<path fill="#EFEFEF" d="M970.196,2312.342H64.704v-905.488h905.492V2312.342z M100.509,2276.537h833.88v-833.878h-833.88V2276.537
			z"/>
	</g>
	<g display="inline">
		<rect x="296.009" y="1485.989" fill="#EFEFEF" width="464.484" height="37.34"/>
	</g>
	<path display="inline" fill="#EFEFEF" d="M424.163-590.359v102.437l0.049,4.213c0,17.211-15.044,31.162-33.603,31.162
		c-18.56,0-33.604-13.951-33.604-31.162v-4.213v-236.319l0.251-45.555v-196.263l-0.062-1.381c0-17.211,15.045-33.418,33.603-33.418
		c18.558,0,33.603,16.207,33.603,33.418v1.381v92.771H464.4v-86.902c0-51.848-24.458-93.927-77.62-93.927
		c-46.013,0-77.771,42.053-77.771,93.927v3.383v458.93v5.277c0,53.699,33.708,97.236,79.511,97.236
		c50.298,0,82.933-39.018,82.933-97.236v-3.588v-94.171H424.163z"/>
	<polygon display="inline" fill="#EFEFEF" points="743.493,-1052.229 675.756,-1052.323 675.756,-1052.479 628.635,-1052.479 
		628.629,-1052.388 557.574,-1052.479 557.574,-1001.979 625.131,-1001.979 623,-971.268 623,-407.762 675.504,-407.762 
		675.734,-1001.979 743.493,-1001.979 	"/>
	<path display="inline" fill="#EFEFEF" d="M554.902-771.262h0.062l-23.034-42.957c0-0.016-0.015-0.029-0.022-0.037l-0.136-0.264
		h-0.045c-1.045-2.152-3.198-3.662-5.75-3.662c-2.555,0-4.706,1.51-5.763,3.662h-0.038l-0.132,0.248
		c-0.009,0.023-0.024,0.037-0.024,0.053l-21.055,39.269h0.091c-3.106,4.92-4.964,10.699-4.964,16.944
		c0,17.604,14.281,31.886,31.885,31.886c17.605,0,31.885-14.282,31.885-31.886C557.861-762.753,556.762-767.229,554.902-771.262z"/>
	<g display="inline">
		<path fill="#EFEFEF" d="M970.196-283.7H64.704v-905.488h905.492V-283.7z M100.509-319.504h833.88v-833.878h-833.88V-319.504z"/>
	</g>
	<path display="inline" fill="#EFEFEF" d="M1646.877-640.035v102.437l0.049,4.213c0,17.211-15.045,31.162-33.604,31.162
		c-18.56,0-33.604-13.951-33.604-31.162v-4.213v-236.319l0.251-45.555v-196.262l-0.062-1.381c0-17.211,15.046-33.418,33.603-33.418
		c18.559,0,33.603,16.207,33.603,33.418v1.381v92.771h40.002v-86.902c0-51.848-24.458-93.927-77.62-93.927
		c-46.013,0-77.771,42.053-77.771,93.927v3.383v458.929v5.277c0,53.699,33.707,97.236,79.512,97.236
		c50.297,0,82.932-39.018,82.932-97.236v-3.588v-94.171H1646.877z"/>
	<polygon display="inline" fill="#EFEFEF" points="1966.207,-1097.905 1898.47,-1097.999 1898.47,-1098.156 1851.349,-1098.156 
		1851.343,-1098.064 1780.288,-1098.156 1780.288,-1047.655 1847.845,-1047.655 1845.714,-1016.945 1845.714,-453.438 
		1898.218,-453.438 1898.448,-1047.655 1966.207,-1047.655 	"/>
	<path display="inline" fill="#EFEFEF" d="M1777.616-797.938h0.062l-23.034-42.957c0-0.016-0.015-0.03-0.022-0.038l-0.136-0.264
		h-0.045c-1.045-2.152-3.198-3.661-5.75-3.661c-2.555,0-4.706,1.509-5.763,3.661h-0.038l-0.132,0.249
		c-0.009,0.023-0.024,0.038-0.024,0.053l-21.056,39.268h0.092c-3.105,4.92-4.965,10.699-4.965,16.944
		c0,17.604,14.281,31.886,31.886,31.886c17.605,0,31.885-14.282,31.885-31.886C1780.575-789.43,1779.476-793.905,1777.616-797.938z"
		/>
	
		<circle display="inline" fill="none" stroke="#EFEFEF" stroke-width="40" stroke-miterlimit="10" cx="1748.69" cy="-771.121" r="504.243"/>
	<path display="inline" fill="#EFEFEF" d="M1434.902,1890.19h0.062l-23.034-42.957c0-0.016-0.015-0.029-0.022-0.037l-0.136-0.264
		h-0.045c-1.045-2.152-3.198-3.662-5.75-3.662c-2.555,0-4.706,1.51-5.763,3.662h-0.038l-0.132,0.248
		c-0.009,0.023-0.024,0.037-0.024,0.053l-21.055,39.269h0.091c-3.106,4.92-4.964,10.699-4.964,16.944
		c0,17.604,14.28,31.886,31.885,31.886c17.605,0,31.885-14.282,31.885-31.886C1437.861,1898.699,1436.762,1894.224,1434.902,1890.19
		z"/>
	<path display="inline" fill="#EFEFEF" d="M2041.051,1892.412h-0.062l23.034,42.957c0,0.016,0.015,0.029,0.022,0.037l0.136,0.264
		h0.045c1.045,2.152,3.198,3.662,5.75,3.662c2.555,0,4.706-1.51,5.763-3.662h0.038l0.132-0.248c0.009-0.023,0.024-0.037,0.024-0.053
		l21.055-39.269h-0.091c3.106-4.92,4.964-10.699,4.964-16.944c0-17.604-14.28-31.886-31.885-31.886
		c-17.605,0-31.885,14.282-31.885,31.886C2038.092,1883.903,2039.191,1888.379,2041.051,1892.412z"/>
	<path display="inline" fill="#EFEFEF" d="M-925.971-590.359v102.437l0.049,4.213c0,17.211-15.044,31.162-33.603,31.162
		c-18.56,0-33.604-13.951-33.604-31.162v-4.213v-236.319l0.251-45.555v-196.263l-0.062-1.381c0-17.211,15.045-33.418,33.603-33.418
		c18.558,0,33.603,16.207,33.603,33.418v1.381v92.771h40.002v-86.902c0-51.848-24.458-93.927-77.62-93.927
		c-46.013,0-77.771,42.053-77.771,93.927v3.383v458.93v5.277c0,53.699,33.708,97.236,79.511,97.236
		c50.298,0,82.933-39.018,82.933-97.236v-3.588v-94.171H-925.971z"/>
	<polygon display="inline" fill="#EFEFEF" points="-646.64,-1052.229 -714.377,-1052.323 -714.377,-1052.479 -761.499,-1052.479 
		-761.504,-1052.388 -832.559,-1052.479 -832.559,-1001.979 -765.002,-1001.979 -767.133,-971.268 -767.133,-407.762 
		-714.629,-407.762 -714.399,-1001.979 -646.64,-1001.979 	"/>
	<path display="inline" fill="#EFEFEF" d="M-538.83-733.851h0.062l-23.034-42.957c0-0.016-0.015-0.029-0.022-0.037l-0.136-0.264
		h-0.045c-1.045-2.152-3.198-3.662-5.75-3.662c-2.555,0-4.706,1.51-5.763,3.662h-0.038l-0.132,0.248
		c-0.009,0.023-0.024,0.037-0.024,0.053l-21.056,39.269h0.092c-3.105,4.92-4.965,10.699-4.965,16.944
		c0,17.604,14.281,31.886,31.886,31.886c17.605,0,31.885-14.282,31.885-31.886C-535.871-725.342-536.97-729.818-538.83-733.851z"/>
	<g display="inline">
		<path fill="#EFEFEF" d="M-399.937-283.7h-905.492v-905.488h905.492V-283.7z M-1269.624-319.504h833.88v-833.878h-833.88V-319.504z
			"/>
	</g>
	<path display="inline" fill="#EFEFEF" d="M-1202.562-735.629h-0.062l23.034,42.957c0,0.016,0.015,0.029,0.022,0.037l0.136,0.264
		h0.045c1.045,2.152,3.198,3.662,5.75,3.662c2.555,0,4.706-1.51,5.763-3.662h0.038l0.132-0.248c0.009-0.023,0.024-0.037,0.024-0.053
		l21.056-39.269h-0.092c3.105-4.92,4.965-10.699,4.965-16.944c0-17.604-14.281-31.886-31.886-31.886
		c-17.605,0-31.885,14.282-31.885,31.886C-1205.521-744.138-1204.421-739.663-1202.562-735.629z"/>
	<path display="inline" fill="#EFEFEF" d="M-1411.78,188.148v34.754l48.246,27.256v-71.262l-0.062-1.381
		c0-17.211,15.045-33.418,33.603-33.418c18.558,0,33.603,16.207,33.603,33.418v1.381v92.771h40.002v-86.902
		c0-51.848-24.458-93.927-77.62-93.927c-46.013,0-77.771,42.053-77.771,93.927"/>
	<path display="inline" fill="#EFEFEF" d="M-1346.848,679.522v102.437l0.049,4.213c0,17.211-15.044,31.162-33.603,31.162
		c-18.56,0-33.604-13.951-33.604-31.162v-4.213V545.64l0.251-45.555V303.823l-0.062-1.381c0-17.211,15.045-33.418,33.603-33.418
		c18.558,0,33.603,16.207,33.603,33.418v1.381v92.771h40.002v-86.902c0-51.848-24.458-93.927-77.62-93.927
		c-46.013,0-77.771,42.053-77.771,93.927v3.383v458.929v5.277c0,53.699,33.708,97.236,79.511,97.236
		c50.298,0,82.933-39.018,82.933-97.236v-3.588v-94.171H-1346.848z"/>
	<polygon display="inline" fill="#EFEFEF" points="-1098.015,221.653 -1165.752,221.559 -1165.752,221.402 -1212.874,221.402 
		-1212.879,221.493 -1283.934,221.402 -1283.934,271.903 -1216.377,271.903 -1218.508,302.613 -1218.508,866.119 -1166.004,866.119 
		-1165.774,271.903 -1098.015,271.903 	"/>
	<path display="inline" fill="#EFEFEF" d="M-1301.611,515.207h0.043l-15.979-29.798c0-0.011-0.01-0.021-0.016-0.026l-0.094-0.184
		h-0.031c-0.725-1.493-2.218-2.539-3.989-2.539c-1.772,0-3.264,1.046-3.998,2.539h-0.026l-0.091,0.173
		c-0.006,0.016-0.017,0.026-0.017,0.037l-14.606,27.24h0.063c-2.155,3.412-3.444,7.422-3.444,11.754
		c0,12.211,9.907,22.119,22.119,22.119c12.213,0,22.118-9.908,22.118-22.119C-1299.558,521.109-1300.321,518.005-1301.611,515.207z"
		/>
	<path display="inline" fill="#4C4C4C" d="M-1072.021,1446.624v694.383h370.659v-694.383H-1072.021z M-927.286,1812.515
		l11.719-21.854c0-0.009,0.009-0.017,0.014-0.03l0.073-0.139h0.021c0.588-1.197,1.786-2.037,3.207-2.037
		c1.421,0,2.619,0.84,3.201,2.037h0.025l0.075,0.146c0.005,0.006,0.013,0.014,0.013,0.022l12.82,23.907h-0.035
		c1.035,2.245,1.647,4.736,1.647,7.378c0,9.798-7.947,17.747-17.746,17.747c-9.798,0-17.746-7.949-17.746-17.747
		c0-3.476,1.034-6.692,2.763-9.431H-927.286z M-732.801,1619.357h-54.365l-0.185,476.759h-42.126v-452.119l1.71-24.64h-54.203
		v-0.189h-9.994v-74.434v-1.108c0-13.809-12.07-26.812-26.96-26.812c-14.889,0-26.96,13.003-26.96,26.812l0.049,1.108v31.505
		c31.169,7.707,45.671,37.676,45.671,73.438v69.725h-32.095v-74.434v-1.108c0-13.81-12.07-26.813-26.96-26.813
		c-14.889,0-26.96,13.004-26.96,26.813l0.049,1.108v157.467l-0.202,36.551v189.605v3.381c0,13.809,12.071,25.002,26.962,25.002
		c14.89,0,26.961-11.193,26.961-25.002l-0.039-3.381v-82.188h37.942v75.557v2.879c0,46.71-26.184,78.016-66.539,78.016
		c-36.75,0-63.794-34.932-63.794-78.016v-4.234v-368.213v-2.715c0-32.664,15.695-60.471,40.294-70.927v-26.593v-2.714
		c0-41.62,25.481-75.36,62.398-75.36c42.654,0,62.277,33.762,62.277,75.36v29.424l34.909,0.045l0.004-0.073h37.807v0.127
		l54.348,0.074V1619.357z"/>
	
		<image display="inline" overflow="visible" width="110" height="146" xlink:href="../../../../Desktop/Screen Shot 2014-04-08 at 12.38.54 PM.png"  transform="matrix(7.469 0 0 5.6273 -1289.4746 1395.0654)">
	</image>
	<path display="inline" fill="#EFEFEF" d="M4017.853,890.549v278.79l0.133,11.466c0,46.84-40.945,84.811-91.454,84.811
		c-50.512,0-91.457-37.971-91.457-84.811v-11.466V526.18l0.684-123.982v-534.141l-0.168-3.761c0-46.842,40.947-90.951,91.451-90.951
		c50.509,0,91.452,44.109,91.452,90.951v3.761V120.54h108.867v-236.512c0-141.107-66.564-255.631-211.248-255.631
		c-125.227,0-211.661,114.451-211.661,255.631v9.207v1249.009v14.363c0,146.146,91.736,264.637,216.396,264.637
		c136.888,0,225.706-106.19,225.706-264.637v-9.764V890.549H4017.853z"/>
	<polygon display="inline" fill="#EFEFEF" points="4886.932,-355.576 4702.58,-355.83 4702.58,-356.26 4574.337,-356.26 
		4574.321,-356.01 4380.939,-356.26 4380.939,-218.816 4564.8,-218.816 4559.002,-135.238 4559.002,1398.386 4701.895,1398.386 
		4702.522,-218.816 4886.932,-218.816 	"/>
	<path display="inline" fill="#EFEFEF" d="M4373.668,460.803h0.168l-62.689-116.91c0-0.042-0.04-0.079-0.062-0.101l-0.368-0.718
		h-0.123c-2.845-5.856-8.703-9.967-15.648-9.967c-6.954,0-12.809,4.11-15.683,9.967h-0.105l-0.358,0.676
		c-0.023,0.063-0.065,0.101-0.065,0.143l-57.305,106.874h0.249c-8.451,13.389-13.513,29.118-13.513,46.115
		c0,47.909,38.869,86.779,86.78,86.779c47.914,0,86.775-38.87,86.775-86.779C4381.721,483.96,4378.729,471.781,4373.668,460.803z"/>
	<g display="inline">
		<path fill="#EFEFEF" d="M4294.945,1960.557c-192.588,0-379.444-37.73-555.377-112.146
			c-169.907-71.861-322.484-174.728-453.498-305.743c-131.015-131.015-233.883-283.593-305.745-453.497
			c-74.417-175.933-112.147-362.789-112.147-555.377c0-192.589,37.73-379.445,112.147-555.381
			c71.862-169.904,174.73-322.481,305.745-453.497c131.014-131.013,283.591-233.881,453.498-305.745
			c175.933-74.412,362.789-112.143,555.377-112.143c192.589,0,379.444,37.73,555.375,112.143
			c169.904,71.864,322.487,174.732,453.5,305.745c131.013,131.016,233.879,283.593,305.743,453.5
			c74.414,175.933,112.145,362.789,112.145,555.378c0,192.588-37.73,379.444-112.145,555.377
			c-71.864,169.904-174.73,322.482-305.743,453.497c-131.013,131.016-283.596,233.882-453.5,305.743
			C4674.39,1922.826,4487.534,1960.557,4294.945,1960.557z M4294.945-784.109c-177.938,0-350.528,34.837-512.97,103.545
			c-156.929,66.373-297.875,161.408-418.928,282.46c-121.052,121.051-216.087,261.997-282.46,418.928
			c-68.708,162.441-103.545,335.029-103.545,512.971c0,177.938,34.837,350.525,103.545,512.97
			c66.373,156.926,161.408,297.875,282.46,418.926c121.053,121.051,261.999,216.084,418.928,282.46
			c162.441,68.705,335.031,103.545,512.97,103.545s350.526-34.84,512.968-103.545c156.931-66.376,297.877-161.409,418.928-282.46
			c121.054-121.051,216.084-262,282.46-418.926c68.705-162.444,103.545-335.032,103.545-512.97
			c0-177.941-34.84-350.529-103.545-512.971c-66.376-156.931-161.406-297.877-282.46-418.928
			c-121.051-121.052-261.997-216.087-418.928-282.46C4645.472-749.272,4472.884-784.109,4294.945-784.109z"/>
	</g>
</g>
<g id="Layer_6">
	<path fill="#353535" d="M437.405,646.72v96.438l0.047,3.966c0,16.202-14.164,29.337-31.636,29.337s-31.636-13.135-31.636-29.337
		v-3.966V520.681l0.236-42.889V293.026l-0.059-1.301c0-16.203,14.164-31.461,31.633-31.461c17.473,0,31.635,15.258,31.635,31.461
		v1.301v87.339h37.659v-81.813c0-48.812-23.024-88.426-73.072-88.426c-43.319,0-73.216,39.589-73.216,88.426v3.184v432.048v4.97
		c0,50.555,31.732,91.541,74.853,91.541c47.352,0,78.074-36.732,78.074-91.541v-3.377V646.72H437.405z"/>
	<polygon fill="#353535" points="710.491,215.668 646.722,215.582 646.722,215.433 602.361,215.433 602.356,215.52 535.46,215.433 
		535.46,262.978 599.062,262.978 597.055,291.887 597.055,822.39 646.484,822.39 646.701,262.978 710.491,262.978 	"/>
	<path fill="#353535" d="M536.473,509.774h0.05l-19.485-36.34c0-0.014-0.013-0.024-0.02-0.031l-0.113-0.224h-0.038
		c-0.886-1.82-2.706-3.098-4.866-3.098c-2.162,0-3.98,1.277-4.875,3.098h-0.032l-0.111,0.211c-0.008,0.02-0.02,0.03-0.02,0.044
		l-17.812,33.221h0.077c-2.627,4.162-4.2,9.052-4.2,14.335c0,14.893,12.082,26.973,26.974,26.973
		c14.894,0,26.974-12.08,26.974-26.973C538.974,516.975,538.045,513.188,536.473,509.774z"/>
	<g>
		<path fill="#353535" d="M512,952.52c-59.864,0-117.946-11.729-172.634-34.857c-52.813-22.34-100.241-54.314-140.965-95.039
			c-40.726-40.727-72.701-88.151-95.04-140.965c-23.131-54.689-34.859-112.771-34.859-172.635
			c0-59.866,11.729-117.947,34.859-172.636c22.338-52.813,54.314-100.24,95.04-140.966c40.724-40.724,88.152-72.699,140.965-95.039
			C394.054,77.254,452.136,65.525,512,65.525c59.863,0,117.946,11.729,172.635,34.858c52.812,22.34,100.242,54.315,140.965,95.039
			c40.725,40.726,72.699,88.153,95.039,140.967c23.129,54.688,34.859,112.769,34.859,172.635c0,59.863-11.73,117.945-34.859,172.635
			c-22.34,52.813-54.314,100.238-95.039,140.965c-40.723,40.725-88.152,72.699-140.965,95.039
			C629.946,940.791,571.863,952.52,512,952.52z M512,99.364c-55.311,0-108.958,10.829-159.452,32.186
			c-48.781,20.631-92.591,50.173-130.22,87.801c-37.628,37.626-67.169,81.438-87.8,130.22
			c-21.357,50.493-32.186,104.141-32.186,159.453c0,55.311,10.829,108.958,32.186,159.451c20.631,48.779,50.172,92.592,87.8,130.221
			c37.628,37.627,81.439,67.168,130.22,87.799c50.493,21.357,104.141,32.188,159.452,32.188c55.312,0,108.958-10.83,159.451-32.188
			c48.782-20.631,92.592-50.172,130.221-87.799c37.627-37.629,67.168-81.441,87.801-130.221
			c21.355-50.493,32.186-104.141,32.186-159.451c0-55.312-10.83-108.959-32.186-159.453c-20.633-48.781-50.174-92.593-87.801-130.22
			c-37.629-37.628-81.438-67.169-130.221-87.801C620.958,110.193,567.312,99.364,512,99.364z"/>
	</g>
</g>
</svg>
