<?xml version="1.0" encoding="utf-8"?>
<!-- Generator: Adobe Illustrator 16.0.1, SVG Export Plug-In . SVG Version: 6.00 Build 0)  -->
<!DOCTYPE svg PUBLIC "-//W3C//DTD SVG 1.1//EN" "http://www.w3.org/Graphics/SVG/1.1/DTD/svg11.dtd">
<svg version="1.1" id="Layer_1" xmlns="http://www.w3.org/2000/svg" xmlns:xlink="http://www.w3.org/1999/xlink" x="0px" y="0px"
	 width="256px" height="256px" viewBox="0 0 256 256" enable-background="new 0 0 256 256" xml:space="preserve">
<path opacity="0.6" fill="#98CC82" d="M255.602,207.098c0,6.591-5.387,11.978-11.977,11.978H12.396
	c-6.585,0-11.979-5.387-11.979-11.978V48.737c0-6.583,5.395-11.978,11.979-11.978h231.229c6.59,0,11.977,5.395,11.977,11.978
	V207.098z"/>
<rect x="0.369" y="63.997" fill="#333333" width="255.233" height="36.179"/>
<rect x="14.333" y="116.926" fill="#B0AFB0" width="168.385" height="23.928"/>
<rect x="191.725" y="116.926" fill="#B0AFB0" width="49.773" height="23.928"/>
<rect x="13.564" y="179.923" fill="#B0AFB0" width="111.37" height="15.833"/>
<g>
	<path opacity="0.5" fill="#B0AFB0" d="M0.417,204.795v2.303c0,6.591,5.395,11.978,11.979,11.978h231.229
		c6.59,0,11.977-5.387,11.977-11.978v-95.469L0.417,204.795z"/>
</g>
</svg>
