<?xml version="1.0" encoding="utf-8"?>
<!-- Generator: Adobe Illustrator 16.0.1, SVG Export Plug-In . SVG Version: 6.00 Build 0)  -->
<!DOCTYPE svg PUBLIC "-//W3C//DTD SVG 1.1//EN" "http://www.w3.org/Graphics/SVG/1.1/DTD/svg11.dtd">
<svg version="1.1" id="Layer_1" xmlns="http://www.w3.org/2000/svg" xmlns:xlink="http://www.w3.org/1999/xlink" x="0px" y="0px"
	 width="125px" height="125px" viewBox="0 0 125 125" enable-background="new 0 0 125 125" xml:space="preserve">
<g>
	<path fill-rule="evenodd" clip-rule="evenodd" fill="#FFFFFF" d="M62.609,2.431c-33.347,0-60.388,27.035-60.388,60.387
		c0,26.682,17.303,49.316,41.297,57.303c3.018,0.559,4.126-1.311,4.126-2.906c0-1.439-0.056-6.197-0.082-11.242
		c-16.8,3.652-20.345-7.125-20.345-7.125c-2.747-6.98-6.705-8.836-6.705-8.836c-5.479-3.748,0.413-3.672,0.413-3.672
		c6.063,0.426,9.257,6.225,9.257,6.225c5.386,9.23,14.127,6.562,17.573,5.02c0.542-3.902,2.106-6.568,3.834-8.076
		c-13.413-1.525-27.514-6.705-27.514-29.843c0-6.593,2.359-11.979,6.223-16.209c-0.627-1.521-2.694-7.663,0.585-15.981
		c0,0,5.071-1.622,16.61,6.19c4.817-1.338,9.983-2.009,15.116-2.032c5.131,0.023,10.301,0.694,15.127,2.032
		c11.527-7.812,16.59-6.19,16.59-6.19c3.287,8.318,1.221,14.46,0.594,15.981c3.871,4.229,6.215,9.616,6.215,16.209
		c0,23.195-14.127,28.3-27.574,29.796c2.166,1.873,4.096,5.549,4.096,11.182c0,8.08-0.07,14.584-0.07,16.572
		c0,1.607,1.088,3.49,4.148,2.898c23.98-7.994,41.262-30.623,41.262-57.295C122.996,29.466,95.959,2.431,62.609,2.431z"/>
	<path fill="#FFFFFF" d="M25.093,89.135c-0.133,0.301-0.605,0.391-1.035,0.184c-0.438-0.197-0.684-0.605-0.542-0.906
		c0.13-0.309,0.603-0.395,1.04-0.189C24.995,88.42,25.245,88.834,25.093,89.135L25.093,89.135z M24.35,88.584"/>
	<path fill="#FFFFFF" d="M27.54,91.863c-0.288,0.266-0.852,0.143-1.233-0.279c-0.396-0.422-0.469-0.984-0.177-1.256
		c0.297-0.266,0.843-0.141,1.238,0.279C27.763,91.033,27.84,91.592,27.54,91.863L27.54,91.863z M26.963,91.244"/>
	<path fill="#FFFFFF" d="M29.92,95.34c-0.37,0.258-0.976,0.018-1.35-0.52c-0.37-0.537-0.37-1.182,0.009-1.439
		c0.374-0.258,0.971-0.025,1.35,0.506C30.298,94.434,30.298,95.078,29.92,95.34L29.92,95.34z M29.92,95.34"/>
	<path fill="#FFFFFF" d="M33.182,98.701c-0.331,0.365-1.036,0.266-1.552-0.232c-0.528-0.486-0.675-1.178-0.344-1.543
		c0.336-0.365,1.045-0.262,1.564,0.232C33.375,97.645,33.535,98.34,33.182,98.701L33.182,98.701z M33.182,98.701"/>
	<path fill="#FFFFFF" d="M37.682,100.652c-0.146,0.473-0.825,0.688-1.509,0.486c-0.684-0.207-1.13-0.762-0.992-1.238
		c0.142-0.477,0.824-0.701,1.513-0.486C37.376,99.621,37.824,100.17,37.682,100.652L37.682,100.652z M37.682,100.652"/>
	<path fill="#FFFFFF" d="M42.625,101.014c0.017,0.498-0.563,0.91-1.281,0.92c-0.722,0.016-1.307-0.387-1.314-0.877
		c0-0.504,0.567-0.912,1.289-0.924C42.036,100.119,42.625,100.52,42.625,101.014L42.625,101.014z M42.625,101.014"/>
	<path fill="#FFFFFF" d="M47.223,100.23c0.086,0.486-0.413,0.984-1.126,1.117c-0.701,0.129-1.35-0.172-1.439-0.652
		c-0.087-0.498,0.421-0.998,1.121-1.127C46.493,99.445,47.132,99.736,47.223,100.23L47.223,100.23z M47.223,100.23"/>
</g>
</svg>
